<svg width="24" height="24" viewBox="0 0 24 24" fill="none" xmlns="http://www.w3.org/2000/svg">
<path d="M11.6667 21.4998C8.31258 21.4998 5.25008 19.7498 3.573 16.8332C1.89591 13.953 1.89591 10.4165 3.573 7.49984C5.25008 4.61963 8.31258 2.83317 11.6667 2.83317C14.9845 2.83317 18.047 4.61963 19.724 7.49984C21.4011 10.4165 21.4011 13.953 19.724 16.8332C18.047 19.7498 14.9845 21.4998 11.6667 21.4998ZM11.6667 7.49984C11.1563 7.49984 10.7917 7.90088 10.7917 8.37484V12.4582C10.7917 12.9686 11.1563 13.3332 11.6667 13.3332C12.1407 13.3332 12.5417 12.9686 12.5417 12.4582V8.37484C12.5417 7.90088 12.1407 7.49984 11.6667 7.49984ZM10.5001 15.6665C10.5001 16.3228 11.0105 16.8332 11.6667 16.8332C12.2865 16.8332 12.8334 16.3228 12.8334 15.6665C12.8334 15.0467 12.2865 14.4998 11.6667 14.4998C11.0105 14.4998 10.5001 15.0467 10.5001 15.6665Z" fill="#F04438"/>
</svg>
