<svg width="72" height="72" viewBox="0 0 72 72" fill="none" xmlns="http://www.w3.org/2000/svg">
<rect width="72" height="72" rx="36" fill="#D1FADF"/>
<path d="M36 18.5C26.3438 18.5 18.5 26.3438 18.5 36C18.5 45.6562 26.3438 53.5 36 53.5C45.6562 53.5 53.5 45.6562 53.5 36C53.5 26.3438 45.6562 18.5 36 18.5ZM44.125 32.125L34.5938 41.6562C34.2031 42.0469 33.6562 42.2812 33.1094 42.2812C32.5625 42.2812 32.0156 42.0469 31.625 41.6562L27.875 37.9062C27.0938 37.125 27.0938 35.875 27.875 35.0938C28.6562 34.3125 29.9062 34.3125 30.6875 35.0938L33.1094 37.5156L41.3125 29.3125C42.0938 28.5312 43.3438 28.5312 44.125 29.3125C44.9062 30.0938 44.9062 31.3438 44.125 32.125Z" fill="#12B76A"/>
</svg>
