<svg width="72" height="72" viewBox="0 0 72 72" fill="none" xmlns="http://www.w3.org/2000/svg">
<rect width="72" height="72" rx="36" fill="#FFFAEB"/>
<path d="M36 18.5C37.0938 18.5 38.1094 19.125 38.6562 20.0625L55.5312 48.8125C56.0781 49.8281 56.0781 51 55.5312 51.9375C54.9844 52.9531 53.9688 53.5 52.875 53.5H19.125C17.9531 53.5 16.9375 52.9531 16.3906 51.9375C15.8438 51 15.8438 49.8281 16.3906 48.8125L33.2656 20.0625C33.8125 19.125 34.8281 18.5 36 18.5ZM36 28.5C34.9062 28.5 34.125 29.3594 34.125 30.375V39.125C34.125 40.2188 34.9062 41 36 41C37.0156 41 37.875 40.2188 37.875 39.125V30.375C37.875 29.3594 37.0156 28.5 36 28.5ZM38.5 46C38.5 44.6719 37.3281 43.5 36 43.5C34.5938 43.5 33.5 44.6719 33.5 46C33.5 47.4062 34.5938 48.5 36 48.5C37.3281 48.5 38.5 47.4062 38.5 46Z" fill="#F79009"/>
</svg>
